<?xml version="1.0" encoding="UTF-8" standalone="no"?>
<!-- Created with Inkscape (http://www.inkscape.org/) -->

<svg
   width="350mm"
   height="350mm"
   viewBox="0 0 350.00001 350"
   version="1.1"
   id="svg1"
   inkscape:version="1.4.2 (ebf0e940d0, 2025-05-08)"
   sodipodi:docname="logo-light.svg"
   xml:space="preserve"
   inkscape:export-filename="../content/logo-light.webp"
   inkscape:export-xdpi="96"
   inkscape:export-ydpi="96"
   xmlns:inkscape="http://www.inkscape.org/namespaces/inkscape"
   xmlns:sodipodi="http://sodipodi.sourceforge.net/DTD/sodipodi-0.dtd"
   xmlns="http://www.w3.org/2000/svg"
   xmlns:svg="http://www.w3.org/2000/svg"><sodipodi:namedview
     id="namedview1"
     pagecolor="#505050"
     bordercolor="#eeeeee"
     borderopacity="1"
     inkscape:showpageshadow="0"
     inkscape:pageopacity="0"
     inkscape:pagecheckerboard="0"
     inkscape:deskcolor="#505050"
     inkscape:document-units="mm"
     inkscape:zoom="0.6148099"
     inkscape:cx="590.42641"
     inkscape:cy="827.89818"
     inkscape:window-width="2991"
     inkscape:window-height="1179"
     inkscape:window-x="0"
     inkscape:window-y="0"
     inkscape:window-maximized="1"
     inkscape:current-layer="layer1"
     showgrid="true"
     showborder="true"><inkscape:grid
       id="grid32"
       units="mm"
       originx="27.069044"
       originy="44.887367"
       spacingx="0.99999998"
       spacingy="1"
       empcolor="#0099e5"
       empopacity="0.30196078"
       color="#0099e5"
       opacity="0.14902"
       empspacing="5"
       enabled="true"
       visible="true" /></sodipodi:namedview><defs
     id="defs1" /><g
     inkscape:label="Layer 1"
     inkscape:groupmode="layer"
     id="layer1"
     transform="translate(27.069045,44.887374)"><g
       id="root-2"
       inkscape:label="root-2"
       style="stroke:#efe9de;stroke-opacity:1;fill:none"><ellipse
         style="fill:none;fill-opacity:1;stroke:#efe9de;stroke-width:10;stroke-dasharray:none;stroke-opacity:1"
         id="path2-36-0"
         cx="115.83289"
         cy="245.62524"
         rx="14.302254"
         ry="14.910861" /><path
         style="fill:none;fill-rule:evenodd;stroke:#efe9de;stroke-width:10.0171;stroke-linecap:butt;stroke-linejoin:miter;stroke-dasharray:none;stroke-opacity:1"
         d="M 115.83289,230.71438 V 185.99394"
         id="path21"
         inkscape:connector-type="polyline"
         inkscape:connector-curvature="0" /><ellipse
         style="fill:none;fill-opacity:1;stroke:#efe9de;stroke-width:10;stroke-dasharray:none;stroke-opacity:1"
         id="path23-7"
         cx="115.83289"
         cy="183.24193"
         rx="3.1951842"
         ry="3.0430329" /><path
         style="fill:none;fill-rule:evenodd;stroke:#efe9de;stroke-width:10;stroke-linecap:butt;stroke-linejoin:miter;stroke-dasharray:none;stroke-opacity:1"
         d="m 117.56408,180.68432 35.52266,-52.48006"
         id="path24"
         inkscape:connector-type="polyline"
         inkscape:connector-curvature="0"
         inkscape:connection-start="#path23-7"
         inkscape:connection-end="#path23" /></g><g
       id="root-3"
       inkscape:label="root-3"
       style="stroke:#efe9de;stroke-opacity:1;fill:none"><ellipse
         style="fill:none;fill-opacity:1;stroke:#efe9de;stroke-width:9.565;stroke-dasharray:none;stroke-opacity:1"
         id="path2"
         cx="155.04086"
         cy="282.30017"
         rx="14.302254"
         ry="14.910861" /><ellipse
         style="fill:none;fill-opacity:1;stroke:#efe9de;stroke-width:10;stroke-dasharray:none;stroke-opacity:1"
         id="path23-7-3"
         cx="155.04086"
         cy="203.14297"
         rx="3.1951842"
         ry="3.0430329" /><path
         style="fill:none;fill-rule:evenodd;stroke:#efe9de;stroke-width:10;stroke-linecap:butt;stroke-linejoin:miter;stroke-dasharray:none;stroke-opacity:1"
         d="m 155.04086,267.38931 v -61.2033"
         id="path25"
         inkscape:connector-type="polyline"
         inkscape:connector-curvature="0"
         inkscape:connection-start="#path2"
         inkscape:connection-end="#path23-7-3" /><path
         style="fill:none;fill-rule:evenodd;stroke:#efe9de;stroke-width:10;stroke-linecap:butt;stroke-linejoin:miter;stroke-dasharray:none;stroke-opacity:1"
         d="m 155.03211,200.09999 -0.20542,-71.41036"
         id="path26"
         inkscape:connector-type="polyline"
         inkscape:connector-curvature="0"
         inkscape:connection-start="#path23-7-3"
         inkscape:connection-end="#path23" /></g><g
       id="root-1"
       inkscape:label="root-1"
       style="fill:none;fill-opacity:1;stroke:#efe9de;stroke-opacity:1"><ellipse
         style="fill:none;fill-opacity:1;stroke:#efe9de;stroke-width:9.565;stroke-dasharray:none;stroke-opacity:1"
         id="path2-3"
         cx="76.624916"
         cy="270.0752"
         rx="14.302254"
         ry="14.910861" /><ellipse
         style="fill:none;fill-opacity:1;stroke:#efe9de;stroke-width:10;stroke-dasharray:none;stroke-opacity:1"
         id="path23-7-5"
         cx="76.624916"
         cy="167.11992"
         rx="3.1951842"
         ry="3.0430329" /><path
         style="fill:none;fill-opacity:1;fill-rule:evenodd;stroke:#efe9de;stroke-width:10;stroke-linecap:butt;stroke-linejoin:miter;stroke-dasharray:none;stroke-opacity:1"
         d="M 76.624916,255.16433 V 170.16295"
         id="path27"
         inkscape:connector-type="polyline"
         inkscape:connector-curvature="0"
         inkscape:connection-end="#path23-7-5"
         inkscape:connection-start="#path2-3" /><path
         style="fill:none;fill-opacity:1;fill-rule:evenodd;stroke:#efe9de;stroke-width:10;stroke-linecap:butt;stroke-linejoin:miter;stroke-dasharray:none;stroke-opacity:1"
         d="M 79.416345,165.63936 152.0265,127.12722"
         id="path28"
         inkscape:connector-type="polyline"
         inkscape:connector-curvature="0"
         inkscape:connection-end="#path23"
         inkscape:connection-start="#path23-7-5" /></g><g
       id="root-4"
       inkscape:label="root-4"
       style="stroke:#efe9de;stroke-opacity:1;fill:none;fill-opacity:1"><ellipse
         style="fill:none;fill-opacity:1;stroke:#efe9de;stroke-width:9.565;stroke-dasharray:none;stroke-opacity:1"
         id="path2-36-1"
         cx="194.24883"
         cy="233.40027"
         rx="14.302254"
         ry="14.910861" /><ellipse
         style="fill:none;fill-opacity:1;stroke:#efe9de;stroke-width:10;stroke-dasharray:none;stroke-opacity:1"
         id="path23-7-30"
         cx="194.24883"
         cy="184.35756"
         rx="3.1951842"
         ry="3.0430329" /><path
         style="fill:none;fill-opacity:1;fill-rule:evenodd;stroke:#efe9de;stroke-width:10;stroke-linecap:butt;stroke-linejoin:miter;stroke-dasharray:none;stroke-opacity:1"
         d="M 194.24883,218.48941 V 187.40059"
         id="path29"
         inkscape:connector-type="polyline"
         inkscape:connector-curvature="0"
         inkscape:connection-start="#path2-36-1"
         inkscape:connection-end="#path23-7-30" /><path
         style="fill:none;fill-opacity:1;fill-rule:evenodd;stroke:#efe9de;stroke-width:10;stroke-linecap:butt;stroke-linejoin:miter;stroke-dasharray:none;stroke-opacity:1"
         d="M 192.52719,181.79411 156.53957,128.2101"
         id="path30"
         inkscape:connector-type="polyline"
         inkscape:connector-curvature="0"
         inkscape:connection-start="#path23-7-30"
         inkscape:connection-end="#path23" /></g><g
       id="root-5"
       inkscape:label="root-5"
       style="stroke:#efe9de;stroke-opacity:1;fill:none;fill-opacity:1"><ellipse
         style="fill:none;fill-opacity:1;stroke:#efe9de;stroke-width:9.565;stroke-dasharray:none;stroke-opacity:1"
         id="path2-36"
         cx="235.24107"
         cy="257.85022"
         rx="14.302254"
         ry="14.910861" /><ellipse
         style="fill:none;fill-opacity:1;stroke:#efe9de;stroke-width:10;stroke-dasharray:none;stroke-opacity:1"
         id="path23-7-8"
         cx="236.28558"
         cy="159.22215"
         rx="3.1951842"
         ry="3.0430329" /><path
         style="fill:none;fill-opacity:1;fill-rule:evenodd;stroke:#efe9de;stroke-width:10;stroke-linecap:butt;stroke-linejoin:miter;stroke-dasharray:none;stroke-opacity:1"
         d="M 235.39897,242.94037 236.25336,162.265"
         id="path31"
         inkscape:connector-type="polyline"
         inkscape:connector-curvature="0"
         inkscape:connection-start="#path2-36"
         inkscape:connection-end="#path23-7-8" /><path
         style="fill:none;fill-opacity:1;fill-rule:evenodd;stroke:#efe9de;stroke-width:10;stroke-linecap:butt;stroke-linejoin:miter;stroke-dasharray:none;stroke-opacity:1"
         d="M 233.35323,158.01363 157.75028,126.85517"
         id="path32"
         inkscape:connector-type="polyline"
         inkscape:connector-curvature="0"
         inkscape:connection-start="#path23-7-8"
         inkscape:connection-end="#path23" /></g><g
       id="leaf-right"
       transform="matrix(0.19240099,0.04413615,-0.04187937,0.18256312,174.63519,-11.155166)"
       inkscape:label="leaf-right"
       style="fill:#efe9de;fill-opacity:1">
	<path
   class="st0"
   d="M 480.013,31.996 C 346.56,-38.363 208.263,16.902 119.997,105.168 39.606,185.574 10.044,341.339 56.278,419.37 l -56.281,56.281 36.359,36.344 56.281,-56.266 c 78.031,46.219 233.797,16.672 314.188,-63.718 88.281,-88.265 143.547,-226.578 73.188,-360.015 z m -58.328,195.421 -107.656,-2.516 -81.641,81.641 123.031,3.984 -1.234,38.063 -158.719,-5.109 -64.188,64.172 -26.922,-26.922 64.172,-64.188 -5.109,-158.719 38.063,-1.234 3.969,123.031 81.641,-81.641 -2.5,-107.656 38.078,-0.875 1.656,71.297 70.859,-70.859 26.938,26.922 -70.859,70.875 71.313,1.656 z"
   id="path1"
   style="fill:#efe9de;fill-opacity:1" />
</g><g
       id="leaf-left"
       transform="matrix(-0.0972435,0.17178429,0.16300059,0.09227123,70.769559,36.43764)"
       inkscape:label="leaf-left"
       style="fill:#efe9de;fill-opacity:1">
	<path
   class="st0"
   d="M 480.013,31.996 C 346.56,-38.363 208.263,16.902 119.997,105.168 39.606,185.574 10.044,341.339 56.278,419.37 l -56.281,56.281 36.359,36.344 56.281,-56.266 c 78.031,46.219 233.797,16.672 314.188,-63.718 88.281,-88.265 143.547,-226.578 73.188,-360.015 z m -58.328,195.421 -107.656,-2.516 -81.641,81.641 123.031,3.984 -1.234,38.063 -158.719,-5.109 -64.188,64.172 -26.922,-26.922 64.172,-64.188 -5.109,-158.719 38.063,-1.234 3.969,123.031 81.641,-81.641 -2.5,-107.656 38.078,-0.875 1.656,71.297 70.859,-70.859 26.938,26.922 -70.859,70.875 71.313,1.656 z"
   id="path1-6"
   style="fill:#efe9de;fill-opacity:1" />
</g><g
       id="leaf-center"
       transform="matrix(-0.17679048,-0.0878138,-0.0833237,0.16775081,198.38376,-5.0902694)"
       inkscape:transform-center-x="20.381711"
       inkscape:transform-center-y="-14.309937"
       inkscape:label="leaf-center"
       style="fill:#efe9de;fill-opacity:1">
	<path
   class="st0"
   d="M 480.013,31.996 C 346.56,-38.363 208.263,16.902 119.997,105.168 39.606,185.574 10.044,341.339 56.278,419.37 l -56.281,56.281 36.359,36.344 56.281,-56.266 c 78.031,46.219 233.797,16.672 314.188,-63.718 88.281,-88.265 143.547,-226.578 73.188,-360.015 z m -58.328,195.421 -107.656,-2.516 -81.641,81.641 123.031,3.984 -1.234,38.063 -158.719,-5.109 -64.188,64.172 -26.922,-26.922 64.172,-64.188 -5.109,-158.719 38.063,-1.234 3.969,123.031 81.641,-81.641 -2.5,-107.656 38.078,-0.875 1.656,71.297 70.859,-70.859 26.938,26.922 -70.859,70.875 71.313,1.656 z"
   id="path1-6-4"
   style="fill:#efe9de;fill-opacity:1" />
</g><g
       id="stem"
       inkscape:label="stem"
       style="fill:#efe9de;fill-opacity:1;stroke:#efe9de;stroke-opacity:1"><path
         style="fill:#efe9de;fill-opacity:1;stroke:#efe9de;stroke-width:10;stroke-dasharray:none;stroke-opacity:1"
         d="m 154.0682,87.873796 0.89086,38.566624"
         id="path20" /><ellipse
         style="fill:#efe9de;fill-opacity:1;stroke:#efe9de;stroke-width:10;stroke-dasharray:none;stroke-opacity:1"
         id="path23"
         cx="154.81793"
         cy="125.64665"
         rx="3.1951842"
         ry="3.0430329" /><ellipse
         style="fill:#efe9de;fill-opacity:1;stroke:#efe9de;stroke-width:10;stroke-dasharray:none;stroke-opacity:1"
         id="path33"
         cx="154.28041"
         cy="81.551292"
         rx="9.2530003"
         ry="9.2525206" /></g></g><style
     type="text/css"
     id="style1">
<![CDATA[
	.st0{fill:#000000;}
]]>
</style></svg>
